<?xml version="1.0" encoding="iso-8859-1"?>
<!-- Uploaded to: SVG Repo, www.svgrepo.com, Generator: SVG Repo Mixer Tools -->
<svg version="1.1" id="Layer_1" xmlns="http://www.w3.org/2000/svg" xmlns:xlink="http://www.w3.org/1999/xlink" 
	 viewBox="0 0 512 512" xml:space="preserve">
<path style="fill:#3E3E42;" d="M436.5,304.763c-24.33,0-47.167-8.424-65.372-24.622c-33.192-29.532-45.916-79.275-35.83-140.066
	c5.982-36.05,0.132-65.071-15.646-77.63c-8.989-7.157-20.858-8.248-33.416-3.076c-10.263,4.227-31.656,23.242-59.607,103.098
	c-16.496,47.128-26.91,92.23-27.013,92.681l-21.846-5.013c0.433-1.887,10.8-46.778,27.704-95.072
	C229.326,86.919,252.95,48.837,277.7,38.644c20.121-8.286,40.499-6.004,55.912,6.264c22.568,17.961,31.242,53.986,23.799,98.836
	c-8.782,52.927,1.381,95.421,28.616,119.653c20.012,17.806,47.569,23.379,75.602,15.286l6.217,21.535
	C457.29,303.263,446.761,304.762,436.5,304.763z"/>
<rect x="146.355" y="43.925" transform="matrix(-0.9271 -0.3747 0.3747 -0.9271 275.4227 335.053)" style="fill:#C6C5CA;" width="47.862" height="193.649"/>
<rect x="147.229" y="39.442" transform="matrix(-0.9271 -0.3747 0.3747 -0.9271 255.7271 322.2578)" style="fill:#D6D6D8;" width="23.93" height="193.649"/>
<rect x="67.537" y="208.601" transform="matrix(-0.9271 -0.3747 0.3747 -0.9271 69.3261 688.9708)" style="fill:#7E4F1F;" width="68.216" height="258.288"/>
<rect x="68.836" y="201.898" transform="matrix(-0.9271 -0.3747 0.3747 -0.9271 39.884 669.839)" style="fill:#C27526;" width="32.457" height="258.288"/>
<g>
	<path style="fill:#EDA637;" d="M89.953,488.856c-2.06,0-4.153-0.388-6.18-1.207l-73.45-29.688
		c-8.451-3.416-12.533-13.036-9.117-21.487c3.416-8.451,13.035-12.534,21.487-9.117l73.45,29.689
		c8.451,3.416,12.533,13.036,9.117,21.487C102.663,484.957,96.481,488.856,89.953,488.856z"/>
	<path style="fill:#EDA637;" d="M187.77,249.789c-2.06,0-4.153-0.388-6.18-1.207l-73.45-29.688
		c-8.451-3.416-12.533-13.036-9.117-21.487s13.034-12.534,21.487-9.117l73.45,29.688c8.451,3.416,12.533,13.036,9.117,21.487
		C200.481,245.89,194.298,249.789,187.77,249.789z"/>
</g>
<path style="fill:#227AA0;" d="M208.282,348.157c-7.302,0-14.718-1.373-21.895-4.273c-29.969-12.115-44.495-46.351-32.382-76.32
	c5.868-14.518,17.038-25.881,31.452-31.997c14.414-6.115,30.347-6.252,44.866-0.384c14.518,5.867,25.88,17.038,31.997,31.452
	c6.116,14.414,6.252,30.349,0.386,44.866C253.494,334.294,231.479,348.157,208.282,348.157z M208.353,264.518
	c-3.312,0-6.621,0.667-9.761,1.999c-6.148,2.609-10.911,7.455-13.415,13.646c-5.165,12.782,1.029,27.383,13.81,32.548
	c12.782,5.164,27.382-1.029,32.549-13.81c2.503-6.192,2.444-12.987-0.164-19.135c-2.609-6.147-7.455-10.911-13.647-13.414
	C214.697,265.13,211.523,264.518,208.353,264.518z"/>
<path style="fill:#797882;" d="M268.536,92.854c-2.098,0-4.23-0.396-6.294-1.229l-89.262-36.08
	c-8.608-3.479-12.765-13.277-9.286-21.885c3.479-8.608,13.277-12.765,21.885-9.286l89.262,36.079
	c8.608,3.479,12.766,13.277,9.286,21.885C281.482,88.882,275.185,92.854,268.536,92.854z"/>
<path style="fill:#8A8A91;" d="M450.062,406.466c-6.164,0-12.424-1.159-18.479-3.606c-25.293-10.224-37.555-39.119-27.332-64.412
	c8.013-19.824,27.463-31.644,47.726-30.904l10.641-26.326c3.48-8.608,13.28-12.765,21.885-9.285
	c8.608,3.479,12.766,13.278,9.286,21.885l-15.84,39.185c-3.479,8.608-13.281,12.765-21.885,9.285
	c-8.107-3.275-17.365,0.653-20.642,8.759s0.653,17.365,8.758,20.642c8.107,3.277,17.366-0.653,20.642-8.759
	c3.479-8.607,13.281-12.765,21.885-9.285c8.608,3.479,12.766,13.278,9.286,21.885C488.219,394.767,469.64,406.466,450.062,406.466z"
	/>
<path style="fill:#EDA637;" d="M474.73,246.955c7.88,16.44,2.495,35.41-12.027,42.369c-14.522,6.961-32.682-0.724-40.562-17.165
	c-7.88-16.441-22.469-77.083-7.947-84.042C428.716,181.157,466.85,230.515,474.73,246.955z"/>
<path style="fill:#F7DC4D;" d="M462.704,289.324c-14.522,6.961-32.682-0.724-40.562-17.165c-7.88-16.441-22.469-77.083-7.947-84.042
	L462.704,289.324z"/>
<path style="fill:#227AA0;" d="M507.802,262.957c-4.858,17.571-21.378,28.337-36.9,24.046
	c-15.522-4.291-24.166-22.014-19.307-39.585c4.858-17.571,33.694-72.879,49.214-68.588
	C516.331,183.121,512.66,245.386,507.802,262.957z"/>
<path style="fill:#5EC5EA;" d="M470.902,287.003c-15.522-4.291-24.166-22.014-19.307-39.585
	c4.858-17.571,33.694-72.879,49.214-68.588L470.902,287.003z"/>
<path style="fill:#94949B;" d="M230.064,42.355l-44.485-17.981c-8.608-3.479-18.406,0.678-21.885,9.286
	c-3.479,8.608,0.678,18.405,9.286,21.885l44.485,17.981L230.064,42.355z"/>
<g>
	<path style="fill:#F7DC4D;" d="M159.047,203.866l-38.535-15.577c-8.452-3.417-18.071,0.666-21.487,9.117
		c-3.416,8.451,0.666,18.071,9.117,21.487l38.535,15.576L159.047,203.866z"/>
	<path style="fill:#F7DC4D;" d="M61.23,442.934l-38.535-15.577c-8.452-3.417-18.071,0.666-21.487,9.117s0.666,18.071,9.117,21.487
		l38.535,15.576L61.23,442.934z"/>
</g>
<path style="fill:#5EC5EA;" d="M208.363,314.529c-3.127,0.004-6.303-0.574-9.376-1.816c-12.782-5.166-18.977-19.768-13.81-32.549
	c2.503-6.191,7.267-11.038,13.415-13.646c3.14-1.333,6.45-1.999,9.761-1.999c0.003,0,0.007,0,0.01,0v-33.629
	c-7.77-0.002-15.535,1.552-22.904,4.678c-14.414,6.117-25.586,17.48-31.452,31.997c-1.288,3.185-2.256,6.418-2.955,9.668v24.559
	c3.958,18.368,16.641,34.536,35.337,42.092c7.176,2.9,14.593,4.273,21.895,4.273c0.027,0,0.054-0.001,0.081-0.001v-33.629H208.363z"
	/>
</svg>